# File created by Blade
# Date/Time:  Mon Sep 22 21:09:19 2014
# Frame Rate: 120.000 fps
#------------------------------------------------------
:FULLY-SPECIFIED
:DEGREES
2257
root -1.317925 32.826799 -11.241235 27.580097 -1.374782 -19.458045
Spine -34.518104 -6.460046 18.895020
Head 10.474793 -13.279190 5.169146
LeftShoulder 0.596916 40.833881 29.652787
LeftArm 87.683819 28.721998 -41.444335
LeftForeArm -35.631219 0.000000 72.108382
LeftHand -22.616881 0.000000 -5.881582
LeftHandThumb1 -26.253704 0.000000 33.147579
RightShoulder -7.148430 -51.044268 -14.742291
RightArm 64.642081 -15.153565 54.447908
RightForeArm 54.308830 -0.000000 76.238632
RightHand 1.719067 -0.000000 20.618784
RightHandThumb1 -24.326973 -0.000000 -32.862282
LeftUpLeg -35.492587 11.616858 7.657191
LeftLeg 23.765964 -0.000000 -0.000000
LeftFoot -14.695076 16.479157 6.658132
LeftToeBase -0.539043 -0.000000 0.000000
RightUpLeg -156.452954 -5.285299 13.657403
RightLeg 91.579270 -0.000000 -0.000000
RightFoot 39.912811 -18.966780 5.656925
RightToeBase 46.119600 -0.000000 -0.000000
2258
root -1.304722 32.819408 -11.257792 27.708965 -1.733693 -19.516684
Spine -34.354528 -6.469130 18.904470
Head 10.135770 -13.138406 5.410631
LeftShoulder 0.612896 40.790470 29.767616
LeftArm 87.671598 28.757356 -41.419382
LeftForeArm -35.794020 -0.000000 72.084241
LeftHand -22.296305 -0.000000 -6.206793
LeftHandThumb1 -26.253704 0.000000 33.147579
RightShoulder -7.059695 -50.996618 -14.794872
RightArm 64.646349 -15.158592 54.415943
RightForeArm 54.368887 -0.000000 76.188889
RightHand 1.786294 0.000000 20.668443
RightHandThumb1 -24.326973 -0.000000 -32.862282
LeftUpLeg -35.639835 11.619049 7.659642
LeftLeg 24.000048 -0.000000 -0.000000
LeftFoot -14.791027 16.841461 6.562275
LeftToeBase -0.379105 -0.000000 0.000000
RightUpLeg -156.313259 -5.124940 13.640205
RightLeg 91.632679 -0.000000 -0.000000
RightFoot 39.922849 -18.955542 5.684265
RightToeBase 46.080628 -0.000000 -0.000000
2259
root -1.293351 32.809492 -11.273827 27.786713 -2.109889 -19.600826
Spine -34.116273 -6.469620 18.893773
Head 9.753406 -13.020613 5.717064
LeftShoulder 0.662511 40.734439 29.912475
LeftArm 87.618810 28.747518 -41.405837
LeftForeArm -35.770193 -0.000000 72.154645
LeftHand -22.558763 -0.000000 -6.025471
LeftHandThumb1 -26.253704 0.000000 33.147579
RightShoulder -6.953043 -50.894859 -14.831349
RightArm 64.563809 -15.178336 54.439688
RightForeArm 54.409748 -0.000000 76.189907
RightHand 1.709021 -0.000000 20.779004
RightHandThumb1 -24.326973 -0.000000 -32.862282
LeftUpLeg -35.765204 11.699824 7.665600
LeftLeg 24.300042 -0.000000 -0.000000
LeftFoot -14.910131 17.138157 6.499898
LeftToeBase -0.345912 -0.000000 0.000000
RightUpLeg -156.116632 -4.951081 13.636833
RightLeg 91.687205 -0.000000 -0.000000
RightFoot 39.898591 -18.951871 5.762823
RightToeBase 46.069327 -0.000000 -0.000000
2260
root -1.281394 32.796366 -11.287189 27.847970 -2.466322 -19.678748
Spine -33.854925 -6.508746 18.913041
Head 9.296077 -12.868574 5.989589
LeftShoulder 0.595151 40.684496 29.950505
LeftArm 87.590243 28.782220 -41.356170
LeftForeArm -35.871858 -0.000000 72.149100
LeftHand -22.292601 -0.000000 -6.256936
LeftHandThumb1 -26.253704 0.000000 33.147579
RightShoulder -6.920016 -50.846092 -14.840603
RightArm 64.610635 -15.199289 54.350929
RightForeArm 54.439084 0.000000 76.157772
RightHand 1.729650 -0.000000 20.799313
RightHandThumb1 -24.326973 -0.000000 -32.862282
LeftUpLeg -35.881221 11.736664 7.686284
LeftLeg 24.626845 -0.000000 -0.000000
LeftFoot -15.076639 17.461223 6.412670
LeftToeBase -0.193196 -0.000000 0.000000
RightUpLeg -155.920092 -4.803562 13.626749
RightLeg 91.761412 -0.000000 -0.000000
RightFoot 39.868829 -18.955889 5.868218
RightToeBase 45.923327 -0.000000 -0.000000
2261
root -1.269821 32.780661 -11.299722 27.910060 -2.847169 -19.790350
Spine -33.595996 -6.498165 18.932145
Head 8.908697 -12.790242 6.214123
LeftShoulder 0.635235 40.633004 30.043392
LeftArm 87.501890 28.769083 -41.331659
LeftForeArm -35.812673 0.000000 72.221831
LeftHand -22.370924 -0.000000 -6.015682
LeftHandThumb1 -26.253704 0.000000 33.147579
RightShoulder -6.862099 -50.822748 -14.854134
RightArm 64.625872 -15.189281 54.304366
RightForeArm 54.463626 -0.000000 76.132723
RightHand 1.686425 -0.000000 20.985344
RightHandThumb1 -24.326973 -0.000000 -32.862282
LeftUpLeg -36.034903 11.848984 7.705009
LeftLeg 25.045042 -0.000000 -0.000000
LeftFoot -15.273711 17.764077 6.317528
LeftToeBase -0.140397 -0.000000 0.000000
RightUpLeg -155.706266 -4.626554 13.633639
RightLeg 91.834486 -0.000000 -0.000000
RightFoot 39.853209 -18.848008 5.851762
RightToeBase 45.954036 -0.000000 -0.000000
